<svg width="341" height="341" viewBox="230 90 341 341" xmlns="http://www.w3.org/2000/svg"><g fill="none" fill-rule="evenodd"><path fill="#FFE9F8" d="M358.574 387.28L401 344.852l42.426 42.426L401 429.706z"/><path fill="#F7CAF7" d="M401 344.853l42.426-42.427 42.427 42.427-42.427 42.426z"/><path fill="#FBBAFE" d="M443.426 302.426L485.853 260l42.426 42.426-42.426 42.427z"/><path fill="#FE52F4" d="M485.853 260l42.426-42.426L570.706 260l-42.427 42.426z"/><path fill="#FE52F4" d="M443.426 217.574h84.853L485.853 260z"/><path fill="#F877FF" d="M401 260l42.426-42.426L485.853 260l-42.427 42.426z"/><path fill="#F697F5" d="M358.574 302.426L401 260l42.426 42.426L401 344.853z"/><path fill="#F7CAF7" d="M316.147 344.853l42.427-42.427L401 344.853l-42.426 42.426z"/><path fill="#F697F5" d="M273.72 302.426L316.148 260l42.427 42.426-42.427 42.427z"/><path fill="#FBBAFE" d="M231.294 260l42.427-42.426L316.147 260l-42.426 42.426z"/><path fill="#FE52F4" d="M273.72 217.574h84.854L316.147 260z"/><path fill="#F78AFD" d="M316.147 260l42.427-42.426L401 260l-42.426 42.426z"/></g></svg>